<svg width="30" height="30" viewBox="0 0 30 30" fill="none" xmlns="http://www.w3.org/2000/svg">
<path d="M10.3125 17.5C10.3125 16.9822 10.7322 16.5625 11.25 16.5625H18.75C19.2678 16.5625 19.6875 16.9822 19.6875 17.5C19.6875 18.0178 19.2678 18.4375 18.75 18.4375H11.25C10.7322 18.4375 10.3125 18.0178 10.3125 17.5Z" fill="white"/>
<path fill-rule="evenodd" clip-rule="evenodd" d="M11.25 1.5625C11.7678 1.5625 12.1875 1.98223 12.1875 2.5V4.07576C13.024 4.0625 13.9535 4.0625 14.9862 4.0625H15.0138C16.0465 4.0625 16.976 4.0625 17.8125 4.07576V2.5C17.8125 1.98223 18.2322 1.5625 18.75 1.5625C19.2678 1.5625 19.6875 1.98223 19.6875 2.5V4.14197C21.5774 4.26046 23.0293 4.56668 24.2247 5.43519C24.8349 5.87851 25.3715 6.41511 25.8148 7.02529C26.8171 8.40487 27.0706 10.1261 27.1508 12.4679C27.1875 13.5394 27.1875 14.7861 27.1875 16.2362V16.2638C27.1875 17.7139 27.1875 18.9606 27.1508 20.0321C27.0706 22.3739 26.8171 24.0951 25.8148 25.4747C25.3715 26.0849 24.8349 26.6215 24.2247 27.0648C22.8451 28.0671 21.1239 28.3206 18.7821 28.4008C17.7105 28.4375 16.4637 28.4375 15.0135 28.4375H14.9434C12.6478 28.4375 10.8483 28.4375 9.4206 28.2828C7.96367 28.125 6.7832 27.7971 5.77529 27.0648C5.16511 26.6215 4.62851 26.0849 4.18519 25.4747C3.45291 24.4668 3.12501 23.2863 2.96716 21.8294C2.81248 20.4017 2.81249 18.6022 2.8125 16.3066L2.8125 16.2362C2.8125 14.7861 2.8125 13.5394 2.84921 12.4679C2.92944 10.1261 3.18287 8.40487 4.18519 7.02529C4.62851 6.41511 5.16511 5.87851 5.77529 5.43519C6.97069 4.56668 8.4226 4.26046 10.3125 4.14197V2.5C10.3125 1.98223 10.7322 1.5625 11.25 1.5625ZM10.3125 6.02156C8.60993 6.13865 7.62722 6.40732 6.87739 6.9521C6.42639 7.27977 6.02977 7.67639 5.7021 8.12739C5.15732 8.87722 4.88865 9.85993 4.77156 11.5625H25.2284C25.1113 9.85993 24.8427 8.87722 24.2979 8.12739C23.9702 7.67639 23.5736 7.27977 23.1226 6.9521C22.3728 6.40732 21.3901 6.13865 19.6875 6.02156V6.25C19.6875 6.76777 19.2678 7.1875 18.75 7.1875C18.2322 7.1875 17.8125 6.76777 17.8125 6.25V5.95098C16.988 5.93756 16.0595 5.9375 15 5.9375C13.9405 5.9375 13.012 5.93756 12.1875 5.95098V6.25C12.1875 6.76777 11.7678 7.1875 11.25 7.1875C10.7322 7.1875 10.3125 6.76777 10.3125 6.25V6.02156ZM25.299 13.4375H4.70098C4.68756 14.262 4.6875 15.1905 4.6875 16.25C4.6875 18.6145 4.68879 20.3125 4.83125 21.6274C4.97181 22.9248 5.24074 23.7376 5.7021 24.3726C6.02977 24.8236 6.42639 25.2202 6.87739 25.5479C7.5124 26.0093 8.32517 26.2782 9.62256 26.4188C10.9375 26.5612 12.6355 26.5625 15 26.5625C16.0604 26.5625 16.9897 26.5624 17.8148 26.549C17.8202 25.9557 17.8387 25.5189 17.901 25.1256C18.3881 22.0501 20.8001 19.6381 23.8756 19.151C24.2689 19.0887 24.7057 19.0702 25.299 19.0648C25.3124 18.2397 25.3125 17.3104 25.3125 16.25C25.3125 15.1905 25.3124 14.262 25.299 13.4375ZM25.2282 20.941C24.722 20.9468 24.4252 20.9623 24.1689 21.0029C21.8958 21.3629 20.1129 23.1458 19.7529 25.4189C19.7123 25.6752 19.6968 25.972 19.691 26.4782C21.3914 26.361 22.3733 26.0923 23.1226 25.5479C23.5736 25.2202 23.9702 24.8236 24.2979 24.3726C24.8423 23.6233 25.111 22.6414 25.2282 20.941Z" fill="white"/>
</svg>
