<svg width="41" height="41" viewBox="0 0 41 41" fill="none" xmlns="http://www.w3.org/2000/svg">
<path fill-rule="evenodd" clip-rule="evenodd" d="M15.4201 2.29697C16.1214 2.29697 16.69 2.86556 16.69 3.56695V5.70154C17.8232 5.68358 19.0824 5.68358 20.4812 5.68358H20.5187C21.9175 5.68358 23.1767 5.68358 24.3099 5.70154V3.56695C24.3099 2.86556 24.8785 2.29697 25.5799 2.29697C26.2813 2.29697 26.8499 2.86556 26.8499 3.56695V5.79124C29.41 5.95174 31.3768 6.36657 32.9962 7.54309C33.8227 8.14363 34.5496 8.87053 35.1502 9.69711C36.1422 11.0625 36.5864 12.6616 36.8002 14.6352C37.0097 16.5692 37.0097 19.0069 37.0097 22.1167V22.2127C37.0097 24.1768 37.0097 25.8654 36.96 27.3167C36.8513 30.489 36.508 32.8207 35.1502 34.6895C34.5496 35.5161 33.8227 36.243 32.9962 36.8435C31.1273 38.2013 28.7957 38.5446 25.6234 38.6533C24.1718 38.703 22.4828 38.703 20.5182 38.703H20.4233C17.3135 38.7031 14.8758 38.7031 12.9419 38.4935C10.9682 38.2797 9.36912 37.8355 8.00377 36.8435C7.17719 36.243 6.45029 35.5161 5.84974 34.6895C4.85776 33.3242 4.41357 31.725 4.19974 29.7514C3.99021 27.8174 3.99022 25.3797 3.99023 22.2699V22.1167C3.99022 19.0069 3.99021 16.5692 4.19974 14.6352C4.41357 12.6616 4.85776 11.0625 5.84974 9.69711C6.45029 8.87053 7.17719 8.14363 8.00377 7.54309C9.62311 6.36657 11.5899 5.95174 14.1501 5.79124V3.56695C14.1501 2.86556 14.7187 2.29697 15.4201 2.29697ZM14.1501 8.33741C11.8437 8.49602 10.5125 8.85997 9.49672 9.59796C8.88577 10.0418 8.34849 10.5791 7.90461 11.1901C7.27964 12.0503 6.91534 13.1513 6.72493 14.9088C6.53194 16.6901 6.53019 18.9903 6.53019 22.1933C6.53019 25.3963 6.53194 27.6966 6.72493 29.4778C6.91534 31.2353 7.27964 32.3364 7.90461 33.1966C8.34849 33.8075 8.88577 34.3448 9.49672 34.7887C10.3569 35.4136 11.4579 35.7779 13.2154 35.9684C14.9967 36.1613 17.297 36.1631 20.5 36.1631C21.9365 36.1631 23.1953 36.163 24.313 36.1448C24.3204 35.341 24.3454 34.7494 24.4298 34.2166C25.0896 30.0505 28.3571 26.783 32.5233 26.1231C33.056 26.0387 33.6477 26.0137 34.4514 26.0063C34.4697 24.8887 34.4697 23.6298 34.4697 22.1933C34.4697 18.9903 34.468 16.6901 34.275 14.9088C34.0846 13.1513 33.7203 12.0503 33.0953 11.1901C32.6514 10.5791 32.1142 10.0418 31.5032 9.59796C30.4875 8.85997 29.1562 8.49602 26.8499 8.33741V8.64686C26.8499 9.34825 26.2813 9.91684 25.5799 9.91684C24.8785 9.91684 24.3099 9.34825 24.3099 8.64686V8.2418C23.193 8.22362 21.9352 8.22354 20.5 8.22354C19.0648 8.22354 17.8069 8.22362 16.69 8.2418V8.64686C16.69 9.34825 16.1214 9.91684 15.4201 9.91684C14.7187 9.91684 14.1501 9.34825 14.1501 8.64686V8.33741ZM34.3555 28.5479C33.6699 28.5558 33.2678 28.5768 32.9206 28.6318C29.8413 29.1195 27.4262 31.5346 26.9385 34.614C26.8835 34.9612 26.8625 35.3632 26.8546 36.0489C29.1581 35.8901 30.4882 35.5261 31.5032 34.7887C32.1142 34.3448 32.6514 33.8075 33.0953 33.1966C33.8328 32.1815 34.1968 30.8514 34.3555 28.5479Z" fill="white"/>
<path d="M13.7267 15.4201C13.7267 16.3553 12.9686 17.1134 12.0334 17.1134C11.0983 17.1134 10.3401 16.3553 10.3401 15.4201C10.3401 14.4849 11.0983 13.7268 12.0334 13.7268C12.9686 13.7268 13.7267 14.4849 13.7267 15.4201Z" fill="white"/>
<path d="M13.7267 22.1933C13.7267 23.1285 12.9686 23.8866 12.0334 23.8866C11.0983 23.8866 10.3401 23.1285 10.3401 22.1933C10.3401 21.2581 11.0983 20.5 12.0334 20.5C12.9686 20.5 13.7267 21.2581 13.7267 22.1933Z" fill="white"/>
<path d="M22.1933 15.4201C22.1933 16.3553 21.4352 17.1134 20.5 17.1134C19.5648 17.1134 18.8067 16.3553 18.8067 15.4201C18.8067 14.4849 19.5648 13.7268 20.5 13.7268C21.4352 13.7268 22.1933 14.4849 22.1933 15.4201Z" fill="white"/>
<path d="M22.1933 22.1933C22.1933 23.1285 21.4352 23.8866 20.5 23.8866C19.5648 23.8866 18.8067 23.1285 18.8067 22.1933C18.8067 21.2581 19.5648 20.5 20.5 20.5C21.4352 20.5 22.1933 21.2581 22.1933 22.1933Z" fill="white"/>
<path d="M22.1933 28.9665C22.1933 29.9017 21.4352 30.6598 20.5 30.6598C19.5648 30.6598 18.8067 29.9017 18.8067 28.9665C18.8067 28.0313 19.5648 27.2732 20.5 27.2732C21.4352 27.2732 22.1933 28.0313 22.1933 28.9665Z" fill="white"/>
<path d="M30.6598 15.4201C30.6598 16.3553 29.9017 17.1134 28.9665 17.1134C28.0313 17.1134 27.2732 16.3553 27.2732 15.4201C27.2732 14.4849 28.0313 13.7268 28.9665 13.7268C29.9017 13.7268 30.6598 14.4849 30.6598 15.4201Z" fill="white"/>
<path d="M30.6598 22.1933C30.6598 23.1285 29.9017 23.8866 28.9665 23.8866C28.0313 23.8866 27.2732 23.1285 27.2732 22.1933C27.2732 21.2581 28.0313 20.5 28.9665 20.5C29.9017 20.5 30.6598 21.2581 30.6598 22.1933Z" fill="white"/>
<path d="M13.7267 28.9665C13.7267 29.9017 12.9686 30.6598 12.0334 30.6598C11.0983 30.6598 10.3401 29.9017 10.3401 28.9665C10.3401 28.0313 11.0983 27.2732 12.0334 27.2732C12.9686 27.2732 13.7267 28.0313 13.7267 28.9665Z" fill="white"/>
</svg>
