<?xml version="1.0" encoding="utf-8"?>

<!DOCTYPE svg PUBLIC "-//W3C//DTD SVG 1.1//EN" "http://www.w3.org/Graphics/SVG/1.1/DTD/svg11.dtd">
<!-- Uploaded to: SVG Repo, www.svgrepo.com, Generator: SVG Repo Mixer Tools -->
<svg height="800px" width="800px" version="1.1" id="_x32_" xmlns="http://www.w3.org/2000/svg" xmlns:xlink="http://www.w3.org/1999/xlink" 
	 viewBox="0 0 512 512"  xml:space="preserve">
<style type="text/css">
	.st0{fill:#000000;}
</style>
<g>
	<path class="st0" d="M256,0C114.608,0.018,0.018,114.598,0,256c0.018,141.392,114.608,255.982,256,256
		c141.393-0.018,255.982-114.608,256-256C511.982,114.598,397.393,0.018,256,0z M404.696,404.697
		c-38.134,38.089-90.554,61.571-148.696,61.589c-58.143-0.018-110.571-23.5-148.697-61.589
		C69.214,366.572,45.724,314.143,45.714,256c0.009-58.143,23.5-110.571,61.589-148.697C145.429,69.214,197.857,45.724,256,45.714
		c58.143,0.009,110.563,23.5,148.696,61.589c38.089,38.126,61.58,90.554,61.589,148.697
		C466.277,314.143,442.786,366.572,404.696,404.697z"/>
	<polygon class="st0" points="185.169,165.33 185.169,373.027 211.134,373.027 211.134,282.16 347.429,282.16 347.429,165.33 
		211.134,165.33 	"/>
</g>
</svg>