<svg width="30" height="30" viewBox="0 0 30 30" fill="none" xmlns="http://www.w3.org/2000/svg">
<path fill-rule="evenodd" clip-rule="evenodd" d="M15.2634 1.56733C15.0878 1.56089 14.912 1.56089 14.7364 1.56733C13.5772 1.60986 12.5333 2.00404 11.3888 2.66022C10.2735 3.29967 8.98943 4.2326 7.36021 5.41631L7.27165 5.48066C5.6424 6.66436 4.35833 7.59728 3.40551 8.46043C2.42778 9.34616 1.73032 10.2171 1.33166 11.3064C1.27126 11.4715 1.21694 11.6386 1.16881 11.8076C0.851031 12.9233 0.90336 14.0378 1.17375 15.3291C1.43724 16.5874 1.92772 18.0969 2.55004 20.0122L4.71824 26.6852C5.18557 28.1235 6.52588 29.0973 8.03819 29.0973C9.96611 29.0973 11.529 27.5344 11.529 25.6065V22.1704C11.529 21.365 12.1819 20.7121 12.9873 20.7121H17.0125C17.8179 20.7121 18.4708 21.365 18.4708 22.1704V25.6065C18.4708 27.5344 20.0337 29.0973 21.9616 29.0973C23.4739 29.0973 24.8142 28.1235 25.2815 26.6852L27.4498 20.0121C28.0721 18.0969 28.5625 16.5874 28.826 15.3291C29.0964 14.0378 29.1487 12.9233 28.831 11.8076C28.7828 11.6386 28.7285 11.4715 28.6681 11.3064C28.2695 10.2171 27.572 9.34616 26.5943 8.46043C25.6414 7.59728 24.3574 6.66436 22.7281 5.48065L22.6395 5.41629C21.0103 4.23259 19.7263 3.29967 18.611 2.66022C17.4664 2.00404 16.4226 1.60986 15.2634 1.56733ZM14.8051 3.44107C14.9349 3.43631 15.0648 3.43631 15.1946 3.44107C15.9389 3.46838 16.6802 3.71459 17.6784 4.28684C18.6956 4.87004 19.8985 5.74245 21.5818 6.9654C23.265 8.18835 24.4664 9.06282 25.3354 9.85003C26.1881 10.6225 26.6514 11.2514 26.9073 11.9508C26.952 12.0728 26.9921 12.1964 27.0277 12.3213C27.2317 13.0376 27.2266 13.8187 26.9908 14.9448C26.7505 16.0924 26.2925 17.5061 25.6496 19.4849L23.4983 26.1058C23.282 26.7716 22.6616 27.2223 21.9616 27.2223C21.0692 27.2223 20.3458 26.4989 20.3458 25.6065V22.1704C20.3458 20.3294 18.8534 18.8371 17.0125 18.8371H12.9873C11.1464 18.8371 9.654 20.3294 9.654 22.1704V25.6065C9.654 26.4989 8.93058 27.2223 8.03819 27.2223C7.33818 27.2223 6.71779 26.7716 6.50147 26.1058L4.35019 19.4849C3.70725 17.5061 3.24926 16.0924 3.00894 14.9448C2.77314 13.8187 2.76805 13.0376 2.97208 12.3213C3.00766 12.1964 3.04781 12.0728 3.09245 11.9508C3.34841 11.2514 3.81165 10.6225 4.66434 9.85003C5.53332 9.06282 6.73477 8.18835 8.41801 6.9654C10.1013 5.74245 11.3042 4.87004 12.3214 4.28684C13.3195 3.71459 14.0608 3.46838 14.8051 3.44107Z" fill="#FAFAFA"/>
</svg>
