<svg width="512" height="490" viewBox="0 0 512 490" fill="none" xmlns="http://www.w3.org/2000/svg">
<path d="M409.196 250.295C407.111 290.895 390.311 329.347 361.937 358.461C333.562 387.575 295.556 405.359 255.023 408.488C231.92 410.272 208.898 407.225 187.35 399.754C171.093 394.117 155.676 385.962 141.698 375.464C109.191 351.05 86.6882 315.633 78.3961 275.834C70.1041 236.034 76.5905 194.578 96.6425 159.213C116.695 123.849 148.94 96.9975 187.35 83.6791C225.76 70.3608 267.706 71.487 305.347 86.8472C342.987 102.207 373.745 130.75 391.871 167.14" stroke="#2E3440" stroke-width="7"/>
<path d="M182.769 398.091C185.31 399.38 187.53 400.317 188.979 400.309C186.896 399.611 184.825 398.871 182.769 398.091ZM182.769 398.091C181.449 397.42 180.043 396.655 178.614 395.876C173.995 393.362 169.134 390.716 166.165 390.731C171.572 393.488 177.115 395.944 182.769 398.091ZM409.196 250.295C407.111 290.895 390.311 329.347 361.937 358.461C333.562 387.575 295.556 405.359 255.023 408.488C239.312 409.701 223.638 408.68 208.44 405.553C208.44 405.553 254.979 399.97 280.708 381.367C294.514 371.385 298.495 360.088 302.091 349.883C305.196 341.07 308.015 333.072 316.627 327.436C326.912 320.705 334.884 321.379 344.41 322.183C352.095 322.832 360.792 323.567 372.531 320.568C398.821 313.851 409.196 250.295 409.196 250.295Z" fill="#2E3440"/>
<path d="M182.769 398.091C185.31 399.38 187.53 400.317 188.979 400.309C186.896 399.611 184.825 398.871 182.769 398.091ZM182.769 398.091C181.449 397.42 180.043 396.655 178.614 395.876C173.995 393.362 169.134 390.716 166.165 390.731C171.572 393.488 177.115 395.944 182.769 398.091ZM409.196 250.295C407.111 290.895 390.311 329.347 361.937 358.461C333.562 387.575 295.556 405.359 255.023 408.488C239.312 409.701 223.638 408.68 208.44 405.553C208.44 405.553 254.979 399.97 280.708 381.367C294.514 371.385 298.495 360.088 302.091 349.883C305.196 341.07 308.015 333.072 316.627 327.436C326.912 320.705 334.884 321.379 344.41 322.183C352.095 322.832 360.792 323.567 372.531 320.568C398.821 313.851 409.196 250.295 409.196 250.295Z" stroke="#2E3440"/>
<mask id="mask0_9_63" style="mask-type:alpha" maskUnits="userSpaceOnUse" x="159" y="139" width="128" height="196">
<rect x="159.5" y="139.5" width="126.5" height="195" fill="#2E3440" stroke="black"/>
</mask>
<g mask="url(#mask0_9_63)">
<rect x="159" y="139" width="127.5" height="196" fill="white"/>
<path d="M257.5 200C257.5 213.913 251.304 227.327 240.118 237.631C228.933 247.934 213.56 254.388 196.992 255.736C180.425 257.085 163.851 253.23 150.498 244.923C137.145 236.617 127.969 224.453 124.758 210.802C121.547 197.15 124.531 182.989 133.129 171.076C141.726 159.163 155.322 150.351 171.267 146.357C187.212 142.363 204.364 143.473 219.384 149.471C234.403 155.469 246.213 165.925 252.514 178.802L190.5 200L257.5 200Z" fill="#2E3440"/>
<path d="M236.5 200C236.5 191.174 232.24 182.665 224.551 176.131C216.861 169.598 206.294 165.51 194.91 164.664C183.527 163.817 172.143 166.274 162.979 171.554C153.815 176.835 147.529 184.56 145.346 193.224C143.163 201.887 145.24 210.868 151.172 218.414C157.104 225.96 166.466 231.529 177.431 234.037C188.396 236.545 200.178 235.81 210.479 231.977C220.781 228.143 228.862 221.486 233.148 213.303L190.5 200L236.5 200Z" fill="white"/>
<path d="M188.25 245.25L285.75 335.39L251 335.39L149.75 241L188.25 245.25Z" fill="#2E3440"/>
<path d="M186.307 237.483C186.435 238.16 186.5 238.846 186.5 239.535L186.5 324.39C186.5 330.465 181.575 335.39 175.5 335.39L167.845 335.39C161.93 335.39 157.074 330.713 156.852 324.803L150.992 168.741C150.481 155.145 170.254 152.91 172.791 166.277L186.307 237.483Z" fill="#2E3440"/>
</g>
<ellipse cx="72.4886" cy="73.6085" rx="72.4886" ry="73.6085" transform="matrix(0.97358 0.228345 -0.221068 0.975258 337.299 110.195)" fill="white" stroke="#2E3440" stroke-width="17"/>
<path d="M473.825 218.39C463.232 265.121 417.495 294.035 371.897 283.34C326.299 272.646 297.626 226.28 308.219 179.549C318.811 132.818 364.549 103.904 410.147 114.599C455.745 125.293 484.418 171.659 473.825 218.39Z" stroke="white" stroke-width="19"/>
<path d="M423.174 160.945L413.612 160.945L413.612 157.758C413.612 156.913 413.276 156.102 412.678 155.504C412.08 154.906 411.27 154.57 410.424 154.57C409.579 154.57 408.768 154.906 408.17 155.504C407.573 156.102 407.237 156.913 407.237 157.758L407.237 160.945L375.362 160.945L375.362 157.758C375.362 156.913 375.026 156.102 374.428 155.504C373.83 154.906 373.02 154.57 372.174 154.57C371.329 154.57 370.518 154.906 369.92 155.504C369.323 156.102 368.987 156.913 368.987 157.758L368.987 160.945L359.424 160.945C357.734 160.945 356.112 161.617 354.917 162.813C353.721 164.008 353.049 165.63 353.049 167.32L353.049 231.07C353.049 232.761 353.721 234.383 354.917 235.578C356.112 236.774 357.734 237.445 359.424 237.445L423.174 237.445C424.865 237.445 426.487 236.774 427.682 235.578C428.878 234.383 429.549 232.761 429.549 231.07L429.549 167.32C429.549 165.63 428.878 164.008 427.682 162.813C426.487 161.617 424.865 160.945 423.174 160.945ZM368.987 167.32L368.987 170.508C368.987 171.353 369.323 172.164 369.92 172.762C370.518 173.36 371.329 173.695 372.174 173.695C373.02 173.695 373.83 173.36 374.428 172.762C375.026 172.164 375.362 171.353 375.362 170.508L375.362 167.32L407.237 167.32L407.237 170.508C407.237 171.353 407.573 172.164 408.17 172.762C408.768 173.36 409.579 173.695 410.424 173.695C411.27 173.695 412.08 173.36 412.678 172.762C413.276 172.164 413.612 171.353 413.612 170.508L413.612 167.32L423.174 167.32L423.174 180.07L359.424 180.07L359.424 167.32L368.987 167.32ZM423.174 231.07L359.424 231.07L359.424 186.445L423.174 186.445L423.174 231.07ZM407.898 196.94C408.195 197.236 408.43 197.588 408.59 197.975C408.751 198.362 408.833 198.777 408.833 199.195C408.833 199.614 408.751 200.029 408.59 200.416C408.43 200.803 408.195 201.155 407.898 201.451L388.773 220.576C388.477 220.872 388.126 221.107 387.739 221.268C387.352 221.428 386.937 221.51 386.518 221.51C386.099 221.51 385.684 221.428 385.297 221.268C384.91 221.107 384.559 220.872 384.263 220.576L374.7 211.013C374.102 210.415 373.766 209.604 373.766 208.758C373.766 207.912 374.102 207.101 374.7 206.503C375.299 205.905 376.11 205.569 376.956 205.569C377.801 205.569 378.613 205.905 379.211 206.503L386.518 213.814L403.388 196.94C403.684 196.644 404.035 196.409 404.422 196.248C404.809 196.088 405.224 196.005 405.643 196.005C406.062 196.005 406.477 196.088 406.864 196.248C407.251 196.409 407.602 196.644 407.898 196.94Z" fill="#2E3440"/>
</svg>
