<svg width="368" height="220" viewBox="0 0 368 220" fill="none" xmlns="http://www.w3.org/2000/svg">
<mask id="mask0_9_61" style="mask-type:alpha" maskUnits="userSpaceOnUse" x="0" y="0" width="128" height="196">
<rect x="0.5" y="0.5" width="126.5" height="195" fill="#2E3440" stroke="black"/>
</mask>
<g mask="url(#mask0_9_61)">
<rect width="127.5" height="196" fill="white"/>
<path d="M98.5 61C98.5 74.9127 92.3038 88.3272 81.1185 98.6306C69.9331 108.934 54.5596 115.388 37.9924 116.736C21.4252 118.085 4.85079 114.23 -8.50232 105.923C-21.8554 97.6169 -31.031 85.4532 -34.2418 71.8018C-37.4525 58.1505 -34.4685 43.9889 -25.871 32.0757C-17.2735 20.1625 -3.6782 11.3508 12.2667 7.35696C28.2117 3.36313 45.3644 4.47321 60.3837 10.471C75.403 16.4687 87.2134 26.9246 93.5143 39.802L31.5 61H98.5Z" fill="#2E3440"/>
<path d="M77.5 61C77.5 52.1741 73.2399 43.6646 65.5506 37.1314C57.8613 30.5982 47.2942 26.5098 35.9105 25.6636C24.5268 24.8173 13.1428 27.274 3.97899 32.5544C-5.18482 37.8348 -11.4713 45.5602 -13.6542 54.2239C-15.8372 62.8875 -13.7601 71.868 -7.82802 79.4138C-1.89598 86.9596 7.46558 92.5295 18.4307 95.037C29.3958 97.5446 41.1781 96.8101 51.4794 92.9767C61.7808 89.1433 69.8624 82.4859 74.1481 74.3031L31.5 61H77.5Z" fill="white"/>
<path d="M29.2501 106.25L126.75 196.39L92.0001 196.39L-9.2499 102L29.2501 106.25Z" fill="#2E3440"/>
<path d="M16 92.5L27.5 196.39L-1.75002 196.39L-1.75006 34.2132C-1.75006 30.5907 3.47899 30.0715 4.19136 33.6233L16 92.5Z" fill="#2E3440"/>
</g>
<path d="M141.875 193.95C138.645 193.95 137.03 190.878 137.03 184.735C137.03 178.845 138.297 173.05 140.83 167.35C143.427 161.587 146.91 156.9 151.28 153.29C155.65 149.617 160.369 147.78 165.435 147.78C168.032 147.78 170.28 148.192 172.18 149.015C171.357 152.245 170.787 154.62 170.47 156.14L168.475 166.4C166.702 174.507 165.625 180.112 165.245 183.215C165.182 183.658 165.15 184.197 165.15 184.83C165.15 186.223 165.562 186.92 166.385 186.92C167.399 186.92 168.349 186.287 169.235 185.02C170.122 183.69 171.135 181.822 172.275 179.415C172.339 179.352 172.434 179.162 172.56 178.845C172.75 178.528 172.972 178.37 173.225 178.37C173.605 178.37 173.795 178.75 173.795 179.51L173.605 181.03C173.162 183.12 172.244 185.178 170.85 187.205C169.52 189.232 168 190.878 166.29 192.145C164.644 193.348 163.155 193.95 161.825 193.95C159.609 193.95 158.5 192.145 158.5 188.535C158.5 187.142 158.659 185.717 158.975 184.26L160.59 175.995H160.495C157.455 181.315 154.194 185.653 150.71 189.01C147.29 192.303 144.345 193.95 141.875 193.95ZM146.34 186.16C148.114 186.16 150.14 184.798 152.42 182.075C154.764 179.288 156.917 175.9 158.88 171.91C160.907 167.92 162.3 164.342 163.06 161.175L164.58 155.095C162.68 153.828 160.685 153.195 158.595 153.195C155.872 153.195 153.37 154.778 151.09 157.945C148.874 161.048 147.132 164.848 145.865 169.345C144.599 173.778 143.965 177.8 143.965 181.41C143.965 182.993 144.124 184.197 144.44 185.02C144.82 185.78 145.454 186.16 146.34 186.16ZM192.354 193.95C191.784 193.95 191.373 193.792 191.119 193.475C190.929 193.222 190.771 192.62 190.644 191.67C190.581 190.72 190.549 189.58 190.549 188.25C190.549 183.753 190.328 178.623 189.884 172.86C189.314 166.337 188.618 161.745 187.794 159.085C187.034 156.425 186.053 155.095 184.849 155.095C184.026 155.095 183.424 155.475 183.044 156.235C182.664 156.995 182.158 158.388 181.524 160.415C181.271 161.492 180.891 162.03 180.384 162.03C179.878 162.03 179.624 161.555 179.624 160.605C179.624 159.022 179.973 157.217 180.669 155.19C181.429 153.163 182.443 151.422 183.709 149.965C185.039 148.508 186.528 147.78 188.174 147.78C191.088 147.78 193.114 149.838 194.254 153.955C195.458 158.072 196.313 163.455 196.819 170.105C197.136 174.285 197.326 177.23 197.389 178.94C197.516 180.65 197.611 181.727 197.674 182.17C197.738 183.247 198.023 183.785 198.529 183.785C199.733 183.785 201.284 182.455 203.184 179.795C205.084 177.072 206.731 173.937 208.124 170.39C209.581 166.78 210.309 163.708 210.309 161.175C210.309 160.035 210.151 159.117 209.834 158.42C209.581 157.723 209.201 157.027 208.694 156.33C208.188 155.633 207.934 155.095 207.934 154.715C207.934 153.765 208.694 152.372 210.214 150.535C211.734 148.698 212.906 147.78 213.729 147.78C214.363 147.78 214.964 148.35 215.534 149.49C216.104 150.567 216.389 152.023 216.389 153.86C216.389 158.04 214.964 163.36 212.114 169.82C209.264 176.217 205.939 181.853 202.139 186.73C198.339 191.543 195.078 193.95 192.354 193.95ZM224.351 193.95C221.121 193.95 219.506 190.878 219.506 184.735C219.506 178.845 220.773 173.05 223.306 167.35C225.903 161.587 229.386 156.9 233.756 153.29C238.126 149.617 242.844 147.78 247.911 147.78C250.508 147.78 252.756 148.192 254.656 149.015C253.833 152.245 253.263 154.62 252.946 156.14L250.951 166.4C249.178 174.507 248.101 180.112 247.721 183.215C247.658 183.658 247.626 184.197 247.626 184.83C247.626 186.223 248.038 186.92 248.861 186.92C249.874 186.92 250.824 186.287 251.711 185.02C252.598 183.69 253.611 181.822 254.751 179.415C254.814 179.352 254.909 179.162 255.036 178.845C255.226 178.528 255.448 178.37 255.701 178.37C256.081 178.37 256.271 178.75 256.271 179.51L256.081 181.03C255.638 183.12 254.719 185.178 253.326 187.205C251.996 189.232 250.476 190.878 248.766 192.145C247.119 193.348 245.631 193.95 244.301 193.95C242.084 193.95 240.976 192.145 240.976 188.535C240.976 187.142 241.134 185.717 241.451 184.26L243.066 175.995H242.971C239.931 181.315 236.669 185.653 233.186 189.01C229.766 192.303 226.821 193.95 224.351 193.95ZM228.816 186.16C230.589 186.16 232.616 184.798 234.896 182.075C237.239 179.288 239.393 175.9 241.356 171.91C243.383 167.92 244.776 164.342 245.536 161.175L247.056 155.095C245.156 153.828 243.161 153.195 241.071 153.195C238.348 153.195 235.846 154.778 233.566 157.945C231.349 161.048 229.608 164.848 228.341 169.345C227.074 173.778 226.441 177.8 226.441 181.41C226.441 182.993 226.599 184.197 226.916 185.02C227.296 185.78 227.929 186.16 228.816 186.16ZM265.052 193.95C264.482 193.95 264.197 193.76 264.197 193.38C264.197 193.127 264.323 192.588 264.577 191.765C264.893 190.878 265.305 189.39 265.812 187.3C267.078 182.043 268.598 173.272 270.372 160.985C270.752 158.578 270.942 156.9 270.942 155.95C270.942 155.127 270.752 154.715 270.372 154.715C269.295 154.715 267.68 156.615 265.527 160.415C265.21 160.985 264.925 161.492 264.672 161.935C264.418 162.315 264.197 162.6 264.007 162.79C263.88 162.98 263.722 163.075 263.532 163.075C263.025 163.075 262.772 162.758 262.772 162.125C262.772 160.858 263.468 159.053 264.862 156.71C266.255 154.367 267.902 152.308 269.802 150.535C271.702 148.698 273.412 147.78 274.932 147.78C275.945 147.78 276.673 148.223 277.117 149.11C277.56 149.997 277.782 151.105 277.782 152.435C277.782 154.525 277.275 158.61 276.262 164.69H276.357C279.27 159.56 282.468 155.475 285.952 152.435C289.435 149.332 292.443 147.78 294.977 147.78C297.637 147.78 298.967 149.648 298.967 153.385C298.967 154.778 298.682 157.122 298.112 160.415L295.927 171.815C294.343 179.858 293.552 184.418 293.552 185.495C293.552 185.938 293.647 186.35 293.837 186.73C294.09 187.047 294.47 187.205 294.977 187.205C296.687 187.205 298.65 184.608 300.867 179.415C301.057 178.718 301.373 178.37 301.817 178.37C302.197 178.37 302.387 178.75 302.387 179.51C302.387 180.08 302.355 180.587 302.292 181.03C301.848 183.31 300.93 185.463 299.537 187.49C298.143 189.453 296.592 191.037 294.882 192.24C293.172 193.38 291.62 193.95 290.227 193.95C288.897 193.95 287.978 193.412 287.472 192.335C287.028 191.195 286.807 189.96 286.807 188.63C286.807 185.78 287.598 180.65 289.182 173.24C290.702 166.02 291.525 161.017 291.652 158.23C291.715 157.09 291.62 156.298 291.367 155.855C291.177 155.348 290.67 155.095 289.847 155.095C287.883 155.095 285.762 156.393 283.482 158.99C281.265 161.587 279.27 164.785 277.497 168.585C275.723 172.322 274.552 175.742 273.982 178.845L272.462 187.11C272.082 188.757 271.068 190.308 269.422 191.765C267.775 193.222 266.318 193.95 265.052 193.95ZM313.785 193.95C310.555 193.95 308.94 190.847 308.94 184.64C308.94 178.877 310.206 173.145 312.74 167.445C315.273 161.682 318.693 156.963 323 153.29C327.306 149.617 331.93 147.78 336.87 147.78H337.82C339.91 139.04 341.873 132.453 343.71 128.02C345.546 123.587 347.985 119.913 351.025 117C353.051 115.1 354.888 113.802 356.535 113.105C358.181 112.408 360.43 111.775 363.28 111.205C364.546 110.952 365.433 110.73 365.94 110.54C366.51 110.287 366.89 110.16 367.08 110.16C367.523 110.16 367.745 110.413 367.745 110.92C367.745 111.743 367.143 112.662 365.94 113.675C365.306 114.245 364.705 114.625 364.135 114.815C363.628 115.005 363.121 115.132 362.615 115.195C362.108 115.258 361.728 115.322 361.475 115.385C358.181 115.828 355.395 117.475 353.115 120.325C351.405 122.542 349.885 125.708 348.555 129.825C347.288 133.942 345.546 141.13 343.33 151.39C339.656 169.123 337.598 179.732 337.155 183.215C337.091 183.658 337.06 184.197 337.06 184.83C337.06 186.223 337.471 186.92 338.295 186.92C339.308 186.92 340.258 186.255 341.145 184.925C342.095 183.532 343.076 181.695 344.09 179.415C344.47 178.718 344.818 178.37 345.135 178.37C345.515 178.37 345.705 178.718 345.705 179.415L345.515 181.03C345.008 183.247 344.058 185.368 342.665 187.395C341.335 189.358 339.815 190.942 338.105 192.145C336.458 193.348 334.938 193.95 333.545 193.95C331.518 193.95 330.505 192.272 330.505 188.915C330.505 187.648 330.631 186.128 330.885 184.355L332.5 175.995H332.405C330.061 180.048 327.085 184.07 323.475 188.06C319.865 191.987 316.635 193.95 313.785 193.95ZM318.25 186.16C320.023 186.16 322.05 184.798 324.33 182.075C326.673 179.288 328.826 175.9 330.79 171.91C332.816 167.92 334.21 164.342 334.97 161.175L336.49 155.095C334.59 153.828 332.595 153.195 330.505 153.195C327.781 153.195 325.28 154.778 323 157.945C320.783 161.048 319.041 164.848 317.775 169.345C316.508 173.778 315.875 177.8 315.875 181.41C315.875 182.993 316.033 184.197 316.35 185.02C316.73 185.78 317.363 186.16 318.25 186.16Z" fill="#2E3440"/>
</svg>
