<svg width="32" height="32" viewBox="0 0 32 32" fill="none" xmlns="http://www.w3.org/2000/svg">
<path d="M19 11C19.7911 11 20.5645 10.7654 21.2223 10.3259C21.8801 9.88635 22.3928 9.26164 22.6955 8.53074C22.9983 7.79983 23.0775 6.99556 22.9231 6.21964C22.7688 5.44372 22.3878 4.73098 21.8284 4.17157C21.269 3.61216 20.5563 3.2312 19.7803 3.07686C19.0044 2.92252 18.2002 3.00173 17.4693 3.30448C16.7383 3.60723 16.1136 4.11992 15.6741 4.77772C15.2346 5.43552 15 6.20888 15 7C15 8.06087 15.4214 9.07828 16.1716 9.82843C16.9217 10.5786 17.9391 11 19 11ZM19 5C19.3955 5 19.7822 5.1173 20.1111 5.33706C20.44 5.55683 20.6964 5.86918 20.8477 6.23463C20.9991 6.60009 21.0387 7.00222 20.9616 7.39018C20.8844 7.77814 20.6939 8.13451 20.4142 8.41422C20.1345 8.69392 19.7781 8.8844 19.3902 8.96157C19.0022 9.03874 18.6001 8.99914 18.2346 8.84776C17.8692 8.69639 17.5568 8.44004 17.337 8.11114C17.1173 7.78224 17 7.39556 17 7C17 6.46957 17.2107 5.96086 17.5858 5.58579C17.9608 5.21072 18.4696 5 19 5ZM27.4137 17.585C27.3375 17.62 26.4775 17.995 24.955 17.995C23.2237 17.995 20.6362 17.51 17.3687 15.495C16.8714 16.9068 16.2257 18.2619 15.4425 19.5375C16.8493 19.9706 18.1726 20.6388 19.3562 21.5138C21.74 23.3313 23 25.9188 23 29C23 29.2652 22.8946 29.5196 22.7071 29.7071C22.5196 29.8946 22.2652 30 22 30C21.7348 30 21.4804 29.8946 21.2929 29.7071C21.1053 29.5196 21 29.2652 21 29C21 23.7875 16.6637 21.9113 14.2325 21.2688C14.1637 21.3563 14.0925 21.445 14.0212 21.5313C11.5662 24.5063 8.48999 26.0538 5.06749 26.0538C4.67766 26.0556 4.28799 26.0376 3.89999 26C3.63477 25.9735 3.39095 25.8427 3.22217 25.6364C3.05339 25.4301 2.97346 25.1652 2.99999 24.9C3.02651 24.6348 3.1573 24.391 3.36359 24.2222C3.56988 24.0534 3.83477 23.9735 4.09999 24C7.33999 24.3225 10.1587 23.0638 12.475 20.25C14.0362 18.3575 15.1 16.0488 15.6312 14.375C10.7662 11.5438 7.65874 13.9538 7.62499 13.98C7.52312 14.067 7.40482 14.1326 7.2771 14.173C7.14938 14.2134 7.01485 14.2277 6.8815 14.2151C6.74814 14.2025 6.61868 14.1632 6.50079 14.0996C6.3829 14.036 6.279 13.9494 6.19524 13.8448C6.11148 13.7403 6.04957 13.62 6.0132 13.4911C5.97682 13.3622 5.96672 13.2273 5.98348 13.0944C6.00025 12.9615 6.04354 12.8333 6.1108 12.7175C6.17805 12.6016 6.26789 12.5005 6.37499 12.42C6.56249 12.27 11.0275 8.795 17.5637 13.2413C23.2475 17.105 26.555 15.78 26.5862 15.765C26.706 15.7084 26.8359 15.6762 26.9683 15.6703C27.1006 15.6643 27.2328 15.6847 27.3572 15.7303C27.4816 15.7758 27.5958 15.8457 27.6929 15.9357C27.7901 16.0258 27.8684 16.1342 27.9234 16.2548C27.9783 16.3754 28.0087 16.5057 28.0128 16.6381C28.0169 16.7705 27.9947 16.9025 27.9474 17.0262C27.9001 17.15 27.8287 17.2631 27.7373 17.359C27.6459 17.455 27.5363 17.5318 27.415 17.585H27.4137Z" fill="white"/>
</svg>
