<svg width="30" height="30" viewBox="0 0 30 30" fill="none" xmlns="http://www.w3.org/2000/svg">
<path fill-rule="evenodd" clip-rule="evenodd" d="M14.9999 10.3125C12.4111 10.3125 10.3124 12.4112 10.3124 15C10.3124 17.5889 12.4111 19.6875 14.9999 19.6875C17.5888 19.6875 19.6874 17.5889 19.6874 15C19.6874 12.4112 17.5888 10.3125 14.9999 10.3125ZM12.1874 15C12.1874 13.4467 13.4466 12.1875 14.9999 12.1875C16.5532 12.1875 17.8124 13.4467 17.8124 15C17.8124 16.5533 16.5532 17.8125 14.9999 17.8125C13.4466 17.8125 12.1874 16.5533 12.1874 15Z" fill="white"/>
<path fill-rule="evenodd" clip-rule="evenodd" d="M19.2683 4.04037C18.0428 -0.253855 11.9571 -0.253853 10.7315 4.04037C10.3518 5.37088 8.9849 6.16008 7.64279 5.82366C3.31113 4.73787 0.268249 10.0083 3.3744 13.2167C4.3368 14.2108 4.3368 15.7892 3.3744 16.7833C0.268249 19.9917 3.31113 25.2622 7.64279 24.1764C8.9849 23.84 10.3518 24.6292 10.7315 25.9597C11.9571 30.2539 18.0428 30.2539 19.2683 25.9597C19.648 24.6292 21.015 23.84 22.3571 24.1764C26.6887 25.2622 29.7316 19.9917 26.6255 16.7833C25.6631 15.7892 25.6631 14.2108 26.6255 13.2167C29.7316 10.0083 26.6887 4.73787 22.3571 5.82366C21.015 6.16008 19.648 5.37088 19.2683 4.04037ZM12.5346 4.55493C13.2424 2.07463 16.7575 2.07463 17.4653 4.55493C18.1227 6.85848 20.4893 8.22484 22.813 7.64239C25.3149 7.01525 27.0724 10.0594 25.2783 11.9126C23.6121 13.6337 23.6121 16.3664 25.2783 18.0875C27.0724 19.9406 25.3149 22.9848 22.813 22.3577C20.4893 21.7752 18.1227 23.1416 17.4653 25.4451C16.7575 27.9254 13.2424 27.9254 12.5346 25.4451C11.8772 23.1416 9.51054 21.7752 7.1869 22.3577C4.68498 22.9848 2.92744 19.9406 4.72152 18.0875C6.38775 16.3664 6.38776 13.6337 4.72153 11.9126C2.92744 10.0594 4.68498 7.01525 7.1869 7.64239C9.51054 8.22484 11.8771 6.85848 12.5346 4.55493Z" fill="white"/>
</svg>
